<svg width="47" height="51" viewBox="0 0 47 51" fill="none" xmlns="http://www.w3.org/2000/svg">
<path d="M26.5644 46.9964L24.275 49.5072C23.3056 50.5703 21.7381 50.5703 20.779 49.5072L0.731193 27.5318C-0.238197 26.4687 -0.238197 24.7496 0.731193 23.6977L20.779 1.71105C21.7484 0.647911 23.3159 0.647911 24.275 1.71105L26.5644 4.22188C27.5441 5.29633 27.5235 7.04938 26.5232 8.10121L14.0964 21.0851H43.735C45.1066 21.0851 46.21 22.2953 46.21 23.7995V27.4187C46.21 28.923 45.1066 30.1331 43.735 30.1331H14.0964L26.5232 43.117C27.5338 44.1689 27.5544 45.9219 26.5644 46.9964Z" fill="black"/>
</svg>
