<svg width="48" height="51" viewBox="0 0 48 51" fill="none" xmlns="http://www.w3.org/2000/svg">
<path d="M20.5357 4.22196L22.8251 1.71114C23.7945 0.647994 25.362 0.647994 26.3211 1.71114L46.3689 23.6865C47.3383 24.7496 47.3383 26.4688 46.3689 27.5206L26.3211 49.5073C25.3517 50.5704 23.7842 50.5704 22.8251 49.5073L20.5357 46.9964C19.556 45.922 19.5766 44.1689 20.5769 43.1171L33.0037 30.1332L3.36509 30.1332C1.9935 30.1332 0.890049 28.923 0.890049 27.4188V23.7996C0.890049 22.2954 1.9935 21.0852 3.36509 21.0852L33.0037 21.0852L20.5769 8.1013C19.5663 7.04946 19.5457 5.29641 20.5357 4.22196Z" fill="black"/>
</svg>
