<svg width="293" height="45" viewBox="0 0 293 45" fill="none" xmlns="http://www.w3.org/2000/svg">
<path d="M169.091 3.77301C165.338 2.02454 161.341 0.736196 157.13 0C156.611 0.920245 156.001 2.17791 155.604 3.19018C151.149 2.51534 146.725 2.51534 142.361 3.19018C141.934 2.17791 141.324 0.920245 140.805 0C136.594 0.736196 132.597 2.02454 128.844 3.77301C121.277 15.2454 119.232 26.4417 120.239 37.454C125.274 41.227 130.125 43.4969 134.916 45C136.106 43.3742 137.144 41.6258 138.059 39.8159C136.32 39.1718 134.672 38.3436 133.116 37.3926C133.543 37.0859 133.94 36.7485 134.336 36.4417C143.887 40.9202 154.231 40.9202 163.66 36.4417C164.057 36.7791 164.453 37.0859 164.88 37.3926C163.324 38.3436 161.646 39.1411 159.937 39.8159C160.853 41.6258 161.89 43.3742 163.08 45C167.871 43.4969 172.753 41.227 177.757 37.454C178.947 24.6626 175.713 13.589 169.152 3.77301H169.091ZM139.341 30.7055C136.472 30.7055 134.123 28.0368 134.123 24.7546C134.123 21.4724 136.411 18.8037 139.341 18.8037C142.27 18.8037 144.589 21.4724 144.558 24.7546C144.558 28.0061 142.27 30.7055 139.341 30.7055ZM158.595 30.7055C155.726 30.7055 153.377 28.0368 153.377 24.7546C153.377 21.4724 155.665 18.8037 158.595 18.8037C161.524 18.8037 163.843 21.4724 163.812 24.7546C163.812 28.0061 161.524 30.7055 158.595 30.7055Z" fill="black"/>
<path d="M292.858 4.09585L285.312 42.2837C284.742 44.9784 283.258 45.6492 281.149 44.3804L269.651 35.2882L264.104 41.0149C263.49 41.6742 262.978 42.2243 261.793 42.2243L262.62 29.6592L283.928 8.99654C284.855 8.11108 283.726 7.61852 282.489 8.5059L256.146 26.3071L244.806 22.4969C242.34 21.6709 242.295 19.8501 245.32 18.5794L289.677 0.239687C291.731 -0.586359 293.527 0.728415 292.858 4.09585Z" fill="black"/>
<path d="M51.9009 5.36159C49.9883 6.25433 47.9408 6.86851 45.7828 7.14706C47.9846 5.74048 49.6681 3.51557 50.4709 0.865052C48.4055 2.14533 46.1208 3.07266 43.6914 3.59689C41.7544 1.38927 38.9854 0 35.9125 0C30.0219 0 25.2476 5.08131 25.2476 11.3443C25.2476 12.2457 25.35 13.1107 25.5271 13.9308C16.666 13.4896 8.81075 8.95675 3.55713 2.109C2.63413 3.77682 2.10925 5.71453 2.10925 7.82353C2.10925 11.7699 3.99587 15.2301 6.84775 17.2647C5.10412 17.2111 3.46287 16.6972 2.02475 15.8512V15.9879C2.02475 21.4913 5.69725 26.0796 10.5723 27.1246C9.68338 27.3754 8.73438 27.5208 7.77075 27.5208C7.08663 27.5208 6.43338 27.4498 5.78175 27.3218C7.15325 31.827 11.0792 35.1073 15.7592 35.2059C12.1209 38.2422 7.50913 40.0519 2.53987 40.0519C1.69325 40.0519 0.84825 40.0087 0 39.8997C4.74013 43.1176 10.335 45 16.3784 45C35.9872 45 46.7025 27.7076 46.7025 12.7318C46.7025 12.2543 46.7025 11.7682 46.6684 11.2803C48.7597 9.69377 50.57 7.68339 52 5.40484L51.9009 5.36159Z" fill="black"/>
</svg>
